<?xml version="1.0" standalone="no"?><!DOCTYPE svg PUBLIC "-//W3C//DTD SVG 1.1//EN" "http://www.w3.org/Graphics/SVG/1.1/DTD/svg11.dtd"><svg t="1693141054246" class="icon" viewBox="0 0 1024 1024" version="1.1" xmlns="http://www.w3.org/2000/svg" p-id="5599" xmlns:xlink="http://www.w3.org/1999/xlink" width="200" height="200"><path d="M356.906667 505.002667a21.333333 21.333333 0 0 1-9.642667-2.304l-49.493333-25.173334a21.333333 21.333333 0 0 1 19.328-38.058666l49.493333 25.173333a21.333333 21.333333 0 0 1-9.685333 40.362667zM703.488 505.002667a21.333333 21.333333 0 0 1-9.642667-40.362667l49.493334-25.173333a21.333333 21.333333 0 0 1 19.328 38.058666l-49.493334 25.173334a21.290667 21.290667 0 0 1-9.685333 2.304z" fill="#ffffff" p-id="5600"></path><path d="M283.306667 856.917333a21.034667 21.034667 0 0 1-10.666667-2.858666 316.629333 316.629333 0 0 1-134.229333-149.632 261.461333 261.461333 0 0 1-9.386667-173.056 1565.184 1565.184 0 0 1 85.034667-243.114667c35.2-70.4 151.68-116.48 243.2-142.677333a264.021333 264.021333 0 0 1 145.92 0c91.52 26.24 208 72.32 243.157333 142.677333a1600.042667 1600.042667 0 0 1 85.034667 243.114667 261.76 261.76 0 0 1-9.386667 173.056 316.928 316.928 0 0 1-134.229333 149.632 21.333333 21.333333 0 0 1-21.333334-36.949334 271.232 271.232 0 0 0 116.437334-129.536 219.136 219.136 0 0 0 7.424-144.725333 1568.768 1568.768 0 0 0-82.090667-235.52c-21.76-43.434667-100.693333-87.466667-216.746667-120.746667a222.293333 222.293333 0 0 0-122.453333 0c-116.053333 33.28-195.029333 77.269333-216.746667 120.746667a1579.605333 1579.605333 0 0 0-82.176 235.52 218.88 218.88 0 0 0 7.509334 144.725333 270.933333 270.933333 0 0 0 116.394666 129.578667 21.333333 21.333333 0 0 1-10.666666 39.765333z" fill="#ffffff" p-id="5601"></path><path d="M893.312 323.584a21.333333 21.333333 0 0 1-15.104-36.394667 100.096 100.096 0 0 0 12.288-139.733333 82.901333 82.901333 0 0 0-65.706667-22.826667 117.461333 117.461333 0 0 0-73.984 35.157334 21.333333 21.333333 0 1 1-30.165333-30.165334 160.170667 160.170667 0 0 1 101.034667-47.530666 124.714667 124.714667 0 0 1 98.986666 35.2 142.506667 142.506667 0 0 1-12.288 200.064 21.248 21.248 0 0 1-15.061333 6.229333zM165.930667 323.584a21.248 21.248 0 0 1-15.104-6.229333 142.421333 142.421333 0 0 1-12.330667-200.064 142.421333 142.421333 0 0 1 200.064 12.330666 21.333333 21.333333 0 1 1-30.165333 30.165334 100.053333 100.053333 0 0 0-139.733334-12.330667 100.053333 100.053333 0 0 0 12.373334 139.733333 21.333333 21.333333 0 0 1-15.104 36.394667zM579.797333 871.68a21.205333 21.205333 0 0 1-16.042666-7.296l-34.133334-39.04-34.218666 39.04a21.333333 21.333333 0 1 1-32.085334-28.117333l37.973334-43.349334-68.778667-78.592a42.666667 42.666667 0 0 1 32.085333-70.741333h130.005334a42.666667 42.666667 0 0 1 32.085333 70.784l-68.778667 78.549333 37.930667 43.349334a21.333333 21.333333 0 0 1-16.042667 35.413333z m14.805334-185.429333h-130.005334l64.981334 74.24z" fill="#ffffff" p-id="5602"></path><path d="M529.578667 984.917333a225.024 225.024 0 0 1-213.333334-234.666666 225.024 225.024 0 0 1 213.333334-234.666667 225.024 225.024 0 0 1 213.333333 234.666667 225.024 225.024 0 0 1-213.333333 234.666666z m0-426.666666a182.485333 182.485333 0 0 0-170.666667 192 182.485333 182.485333 0 0 0 170.666667 192 182.485333 182.485333 0 0 0 170.666666-192 182.485333 182.485333 0 0 0-170.666666-192z" fill="#ffffff" p-id="5603"></path></svg>