<?xml version="1.0" standalone="no"?><!DOCTYPE svg PUBLIC "-//W3C//DTD SVG 1.1//EN" "http://www.w3.org/Graphics/SVG/1.1/DTD/svg11.dtd"><svg t="1693136857419" class="icon" viewBox="0 0 1024 1024" version="1.1" xmlns="http://www.w3.org/2000/svg" p-id="1678" xmlns:xlink="http://www.w3.org/1999/xlink" width="200" height="200"><path d="M766.53036933 355.51213349a97.87487783 97.87487783 0 0 1 0-195.69350566 97.87487783 97.87487783 0 0 1 0 195.69350566m0.1125-147.93731542a49.8936876 49.8936876 0 0 0-35.15620605 85.21864365 50.90618672 50.90618672 0 0 0 70.42491211-0.05625 49.8936876 49.8936876 0 0 0-35.26870606-85.16239365" p-id="1679"></path><path d="M458.5057543 961.998875a55.85618057 55.85618057 0 0 1-39.9936999-16.59372891L78.53747891 605.4868206C67.84999297 594.85558378 62 580.62435137 62 565.4931207s5.84999297-29.24996308 16.53747891-39.9936999L523.24942344 80.84372627C542.09314971 62 570.89311367 62 590.01808994 62l12.43123418 0.05625L893.54271026 62C931.23016367 62 961.998875 92.71246133 961.998875 130.51241474l-0.1125 291.03713614 0.1125 6.29999209c0.1125 26.4937166 0.225 53.83118232-18.89997627 72.89990859L498.4994542 945.40514609a56.24992969 56.24992969 0 0 1-39.9936999 16.59372891M590.01808994 101.09370078c-16.03122979 0-32.28745957 0.61874912-39.03745078 7.42499122L106.21244463 553.17438565a17.54997802 17.54997802 0 0 0 0 24.69371923l339.97457549 339.91832549c6.52499209 6.58124209 17.99997715 6.52499209 24.63746923 0l444.71194366-444.71194453c7.48124033-7.53749033 7.36874122-25.70621748 7.36874121-45.05619375l-0.1125-6.46874121 0.1125-291.03713614a29.36246309 29.36246309 0 0 0-29.30621396-29.36246396H602.39307412l-12.37498418-0.05625z m0 0" p-id="1680"></path><path d="M377.61835537 558.6306295l-7.76249033-3.37499649-1.91249736 8.21249033a1012.32998437 1012.32998437 0 0 1-37.63120343 125.99984268l-2.53124648 6.69374121 42.41244726 15.13123154 2.08124737-7.14374121c15.35623067-51.63743584 27.44996572-94.44363222 35.99995518-127.12484092l1.68749736-6.52499209-6.46874209-1.96874736a235.85595557 235.85595557 0 0 1-25.87496748-9.89998769zM378.79960362 550.13689004l4.66874472-5.62499296c5.39999297-6.52499209 11.47498594-13.3312333 18.16872715-20.47497452l5.06249384-5.39999297-5.62499297-4.78124472c-18.05622714-15.18748066-37.51870342-30.37496221-57.71242792-45.11244287l-5.23124385-3.76874562-25.70621748 29.3062131 6.07499209 4.55624472c12.93748418 9.7312377 31.44371045 25.31246836 54.89993145 46.40619199l5.39999297 4.89374385z" p-id="1681"></path><path d="M414.57455967 391.56833779v32.62495958a926.88634161 926.88634161 0 0 0-55.96868056-42.24369727l-5.23124297-3.59999561-24.69371924 29.36246309 5.90624208 4.49999472c20.13747451 15.13123066 38.69995166 30.59996133 55.12493145 45.95619288l5.17499385 4.83749384 4.78124385-5.17499384c5.51249297-5.96249297 11.81248506-12.88123418 18.84372627-20.86872364l4.89374384-5.51249297-1.68749824-1.34999912h162.16854786v217.40597842c0 10.57498682-4.21874472 14.73748154-15.07498155 14.73748154-11.64373506 0-28.29371484-0.89999912-49.4999376-2.64374649l-9.73123858-0.78749911 2.41874737 9.39373857c2.36249737 9.5624877 4.04999472 19.34997539 5.11874385 29.13746309l0.67499912 6.18749297 6.24374209 0.05625c23.51247099 0.225 40.78119903 0.3375 51.80618496 0.33749912 31.94996045 0 48.88118847-15.97497979 48.88118936-46.23744199V430.04329033h33.29995781v-38.47495254H414.57455967z" p-id="1682"></path><path d="M554.52438477 462.78074902H427.06204385v181.51852325h39.09370078v-28.68746397h88.31239014V462.78074902z m-39.09370167 37.46245342v77.90615244h-49.21868847V500.24320244h49.21868847z" p-id="1683"></path></svg>